<svg width="316" height="103" viewBox="0 0 316 103" fill="none" xmlns="http://www.w3.org/2000/svg">
<rect width="316" height="103" fill="white"/>
<path d="M124.38 26.856V22.068H129.42C130.044 22.068 130.608 21.948 131.112 21.708C131.64 21.444 132.06 21.06 132.372 20.556C132.684 20.052 132.84 19.428 132.84 18.684C132.84 17.94 132.684 17.316 132.372 16.812C132.06 16.284 131.64 15.9 131.112 15.66C130.608 15.396 130.044 15.264 129.42 15.264H124.38V10.476H130.536C132.168 10.476 133.644 10.812 134.964 11.484C136.284 12.132 137.328 13.068 138.096 14.292C138.864 15.492 139.248 16.956 139.248 18.684C139.248 20.364 138.864 21.828 138.096 23.076C137.328 24.3 136.284 25.236 134.964 25.884C133.644 26.532 132.168 26.856 130.536 26.856H124.38ZM119.268 36V10.476H125.712V36H119.268ZM153.275 36V26.064C153.275 25.248 153.035 24.612 152.555 24.156C152.075 23.676 151.463 23.436 150.719 23.436C150.215 23.436 149.759 23.544 149.351 23.76C148.967 23.976 148.667 24.276 148.451 24.66C148.235 25.044 148.127 25.512 148.127 26.064L145.679 24.912C145.679 23.496 145.967 22.284 146.543 21.276C147.143 20.244 147.959 19.452 148.991 18.9C150.023 18.324 151.223 18.036 152.591 18.036C154.007 18.036 155.231 18.324 156.263 18.9C157.319 19.452 158.123 20.22 158.675 21.204C159.251 22.188 159.539 23.328 159.539 24.624V36H153.275ZM141.863 36V9.756H148.127V36H141.863ZM171.528 36.396C169.632 36.396 167.94 36 166.452 35.208C164.988 34.392 163.824 33.288 162.96 31.896C162.096 30.48 161.664 28.896 161.664 27.144C161.664 25.392 162.084 23.832 162.924 22.464C163.788 21.072 164.964 19.98 166.452 19.188C167.94 18.372 169.62 17.964 171.492 17.964C173.364 17.964 175.032 18.372 176.496 19.188C177.984 19.98 179.16 21.072 180.024 22.464C180.888 23.832 181.32 25.392 181.32 27.144C181.32 28.896 180.888 30.48 180.024 31.896C179.184 33.288 178.02 34.392 176.532 35.208C175.068 36 173.4 36.396 171.528 36.396ZM171.492 30.816C172.188 30.816 172.788 30.672 173.292 30.384C173.82 30.072 174.228 29.64 174.516 29.088C174.804 28.536 174.948 27.9 174.948 27.18C174.948 26.46 174.792 25.836 174.48 25.308C174.192 24.756 173.796 24.336 173.292 24.048C172.788 23.736 172.188 23.58 171.492 23.58C170.82 23.58 170.22 23.736 169.692 24.048C169.164 24.36 168.756 24.792 168.468 25.344C168.18 25.872 168.036 26.496 168.036 27.216C168.036 27.912 168.18 28.536 168.468 29.088C168.756 29.64 169.164 30.072 169.692 30.384C170.22 30.672 170.82 30.816 171.492 30.816ZM192.697 36.396C190.729 36.396 188.989 36.012 187.477 35.244C185.965 34.452 184.777 33.36 183.913 31.968C183.049 30.576 182.617 28.98 182.617 27.18C182.617 25.404 183.037 23.832 183.877 22.464C184.717 21.072 185.857 19.98 187.297 19.188C188.761 18.372 190.405 17.964 192.229 17.964C194.005 17.964 195.577 18.348 196.945 19.116C198.337 19.86 199.417 20.904 200.185 22.248C200.977 23.568 201.373 25.08 201.373 26.784C201.373 27.144 201.349 27.516 201.301 27.9C201.277 28.26 201.205 28.68 201.085 29.16L185.569 29.232V25.2L198.601 25.092L195.793 26.856C195.769 25.872 195.625 25.068 195.361 24.444C195.097 23.796 194.713 23.304 194.209 22.968C193.705 22.632 193.069 22.464 192.301 22.464C191.509 22.464 190.825 22.656 190.249 23.04C189.673 23.424 189.229 23.964 188.917 24.66C188.605 25.356 188.449 26.196 188.449 27.18C188.449 28.188 188.617 29.052 188.953 29.772C189.289 30.468 189.769 30.996 190.393 31.356C191.017 31.716 191.785 31.896 192.697 31.896C193.561 31.896 194.317 31.752 194.965 31.464C195.637 31.176 196.237 30.732 196.765 30.132L200.041 33.408C199.177 34.392 198.121 35.136 196.873 35.64C195.649 36.144 194.257 36.396 192.697 36.396ZM215.15 36V26.064C215.15 25.248 214.91 24.612 214.43 24.156C213.95 23.676 213.338 23.436 212.594 23.436C212.09 23.436 211.634 23.544 211.226 23.76C210.842 23.976 210.542 24.276 210.326 24.66C210.11 25.044 210.002 25.512 210.002 26.064L207.554 24.912C207.554 23.496 207.866 22.284 208.49 21.276C209.114 20.244 209.966 19.452 211.046 18.9C212.15 18.324 213.398 18.036 214.79 18.036C216.062 18.036 217.19 18.336 218.174 18.936C219.182 19.512 219.974 20.292 220.55 21.276C221.126 22.26 221.414 23.376 221.414 24.624V36H215.15ZM203.738 36V18.396H210.002V36H203.738ZM224.691 36V18.396H230.991V36H224.691ZM227.823 16.344C226.887 16.344 226.107 16.032 225.483 15.408C224.859 14.76 224.547 13.956 224.547 12.996C224.547 12.06 224.859 11.268 225.483 10.62C226.107 9.972 226.887 9.648 227.823 9.648C228.807 9.648 229.599 9.972 230.199 10.62C230.823 11.268 231.135 12.06 231.135 12.996C231.135 13.956 230.823 14.76 230.199 15.408C229.599 16.032 228.807 16.344 227.823 16.344ZM245.369 36L241.589 29.484L240.149 28.62L233.201 18.396H240.437L244.145 24.732L245.513 25.524L252.569 36H245.369ZM232.841 36L240.077 25.596L243.641 29.448L239.537 36H232.841ZM245.297 28.62L241.733 24.768L245.513 18.396H252.209L245.297 28.62Z" fill="black"/>
<path d="M124.884 72.396C123.204 72.396 121.752 72.108 120.528 71.532C119.328 70.932 118.272 70.092 117.36 69.012L121.536 64.872C121.968 65.472 122.472 65.928 123.048 66.24C123.648 66.528 124.32 66.672 125.064 66.672C125.712 66.672 126.288 66.54 126.792 66.276C127.32 65.988 127.728 65.58 128.016 65.052C128.328 64.5 128.484 63.804 128.484 62.964V46.476H134.928V62.676C134.928 64.692 134.52 66.432 133.704 67.896C132.912 69.336 131.76 70.452 130.248 71.244C128.76 72.012 126.972 72.396 124.884 72.396ZM146.693 72.396C145.037 72.396 143.561 72.072 142.265 71.424C140.993 70.752 139.985 69.828 139.241 68.652C138.521 67.452 138.161 66.096 138.161 64.584V54.396H144.425V64.584C144.425 65.064 144.521 65.484 144.713 65.844C144.905 66.204 145.169 66.48 145.505 66.672C145.841 66.864 146.237 66.96 146.693 66.96C147.365 66.96 147.905 66.744 148.313 66.312C148.745 65.88 148.961 65.304 148.961 64.584V54.396H155.225V64.584C155.225 66.12 154.865 67.476 154.145 68.652C153.425 69.828 152.417 70.752 151.121 71.424C149.849 72.072 148.373 72.396 146.693 72.396ZM158.422 72V54.396H164.686V72H158.422ZM169.474 72V61.812C169.474 61.068 169.246 60.492 168.79 60.084C168.334 59.652 167.77 59.436 167.098 59.436C166.618 59.436 166.198 59.532 165.838 59.724C165.478 59.916 165.19 60.192 164.974 60.552C164.782 60.888 164.686 61.308 164.686 61.812L162.238 60.84C162.238 59.424 162.55 58.212 163.174 57.204C163.798 56.196 164.638 55.416 165.694 54.864C166.75 54.312 167.95 54.036 169.294 54.036C170.494 54.036 171.574 54.324 172.534 54.9C173.518 55.452 174.298 56.232 174.874 57.24C175.45 58.248 175.738 59.436 175.738 60.804V72H169.474ZM180.526 72V61.812C180.526 61.068 180.298 60.492 179.842 60.084C179.386 59.652 178.822 59.436 178.15 59.436C177.694 59.436 177.274 59.532 176.89 59.724C176.53 59.916 176.242 60.192 176.026 60.552C175.834 60.888 175.738 61.308 175.738 61.812L172.066 61.632C172.114 60.048 172.462 58.692 173.11 57.564C173.758 56.436 174.646 55.572 175.774 54.972C176.926 54.348 178.222 54.036 179.662 54.036C181.03 54.036 182.254 54.324 183.334 54.9C184.414 55.476 185.254 56.316 185.854 57.42C186.478 58.5 186.79 59.796 186.79 61.308V72H180.526ZM200.539 72.36C199.411 72.36 198.367 72.156 197.407 71.748C196.447 71.34 195.655 70.788 195.031 70.092C194.407 69.372 194.023 68.544 193.879 67.608V59.04C194.023 58.104 194.407 57.264 195.031 56.52C195.679 55.752 196.471 55.152 197.407 54.72C198.367 54.264 199.411 54.036 200.539 54.036C202.243 54.036 203.743 54.432 205.039 55.224C206.335 55.992 207.343 57.072 208.063 58.464C208.807 59.856 209.179 61.44 209.179 63.216C209.179 64.968 208.807 66.54 208.063 67.932C207.343 69.3 206.335 70.38 205.039 71.172C203.743 71.964 202.243 72.36 200.539 72.36ZM190.063 79.452V54.396H196.327V58.824L195.283 63.072L196.183 67.356V79.452H190.063ZM199.351 66.78C200.047 66.78 200.659 66.624 201.187 66.312C201.715 66 202.123 65.58 202.411 65.052C202.699 64.5 202.843 63.876 202.843 63.18C202.843 62.484 202.699 61.872 202.411 61.344C202.123 60.816 201.715 60.396 201.187 60.084C200.659 59.772 200.059 59.616 199.387 59.616C198.739 59.616 198.151 59.772 197.623 60.084C197.095 60.372 196.687 60.792 196.399 61.344C196.111 61.872 195.967 62.484 195.967 63.18C195.967 63.876 196.111 64.5 196.399 65.052C196.687 65.58 197.083 66 197.587 66.312C198.115 66.624 198.703 66.78 199.351 66.78ZM218.45 72.504C217.37 72.504 216.302 72.36 215.246 72.072C214.214 71.784 213.242 71.4 212.33 70.92C211.442 70.416 210.686 69.84 210.062 69.192L213.482 65.7C214.058 66.3 214.742 66.768 215.534 67.104C216.35 67.44 217.214 67.608 218.126 67.608C218.654 67.608 219.05 67.536 219.314 67.392C219.602 67.248 219.746 67.044 219.746 66.78C219.746 66.396 219.542 66.108 219.134 65.916C218.75 65.7 218.234 65.52 217.586 65.376C216.962 65.208 216.302 65.016 215.606 64.8C214.91 64.56 214.238 64.248 213.59 63.864C212.942 63.48 212.414 62.94 212.006 62.244C211.622 61.548 211.43 60.66 211.43 59.58C211.43 58.452 211.73 57.468 212.33 56.628C212.954 55.764 213.818 55.092 214.922 54.612C216.026 54.108 217.322 53.856 218.81 53.856C220.322 53.856 221.762 54.12 223.13 54.648C224.498 55.152 225.602 55.92 226.442 56.952L222.986 60.444C222.41 59.796 221.774 59.352 221.078 59.112C220.382 58.848 219.746 58.716 219.17 58.716C218.618 58.716 218.222 58.8 217.982 58.968C217.742 59.112 217.622 59.316 217.622 59.58C217.622 59.892 217.814 60.144 218.198 60.336C218.606 60.528 219.122 60.708 219.746 60.876C220.394 61.02 221.054 61.212 221.726 61.452C222.422 61.692 223.082 62.028 223.706 62.46C224.354 62.868 224.87 63.42 225.254 64.116C225.662 64.812 225.866 65.712 225.866 66.816C225.866 68.568 225.194 69.96 223.85 70.992C222.506 72 220.706 72.504 218.45 72.504ZM231.111 72V47.124H237.375V72H231.111ZM227.223 59.616V54.396H241.263V59.616H227.223ZM250.528 72.36C248.896 72.36 247.444 71.964 246.172 71.172C244.9 70.38 243.904 69.3 243.184 67.932C242.464 66.54 242.104 64.968 242.104 63.216C242.104 61.44 242.464 59.856 243.184 58.464C243.904 57.072 244.9 55.992 246.172 55.224C247.444 54.432 248.896 54.036 250.528 54.036C251.632 54.036 252.64 54.24 253.552 54.648C254.464 55.032 255.208 55.584 255.784 56.304C256.384 57.024 256.744 57.84 256.864 58.752V67.608C256.744 68.544 256.384 69.372 255.784 70.092C255.208 70.788 254.464 71.34 253.552 71.748C252.64 72.156 251.632 72.36 250.528 72.36ZM251.86 66.78C252.892 66.78 253.72 66.444 254.344 65.772C254.992 65.1 255.316 64.236 255.316 63.18C255.316 62.484 255.172 61.872 254.884 61.344C254.596 60.816 254.188 60.396 253.66 60.084C253.156 59.772 252.568 59.616 251.896 59.616C251.224 59.616 250.624 59.772 250.096 60.084C249.592 60.396 249.184 60.828 248.872 61.38C248.584 61.908 248.44 62.508 248.44 63.18C248.44 63.876 248.584 64.5 248.872 65.052C249.16 65.58 249.568 66 250.096 66.312C250.624 66.624 251.212 66.78 251.86 66.78ZM255.064 72V67.284L255.964 62.964L255.064 58.716V54.396H261.22V72H255.064ZM264.875 72V54.396H271.139V72H264.875ZM271.139 62.424L268.331 60.048C269.027 58.056 269.951 56.556 271.103 55.548C272.255 54.54 273.755 54.036 275.603 54.036C276.443 54.036 277.163 54.144 277.763 54.36C278.387 54.576 278.915 54.912 279.347 55.368L275.711 60.228C275.519 60.012 275.243 59.844 274.883 59.724C274.547 59.58 274.163 59.508 273.731 59.508C272.915 59.508 272.279 59.76 271.823 60.264C271.367 60.744 271.139 61.464 271.139 62.424ZM283.213 72V47.124H289.477V72H283.213ZM279.325 59.616V54.396H293.365V59.616H279.325Z" fill="#ED5050"/>
<path d="M102.804 8.90972C102.703 8.45384 102.467 8.03593 102.125 7.70622C101.783 7.37651 101.349 7.14905 100.876 7.05116C95.7877 6 91.8069 6 87.8403 6C71.5316 6 61.7495 14.4093 54.45 25.4997H37.9832C36.5769 25.5009 35.1986 25.8789 34.0023 26.5915C32.806 27.3041 31.8387 28.3233 31.2085 29.5353L23.3986 44.5866C23.1102 45.1442 22.9743 45.7635 23.004 46.3859C23.0336 47.0083 23.2278 47.6131 23.568 48.1428C23.9082 48.6726 24.3833 49.1097 24.948 49.4127C25.5127 49.7158 26.1484 49.8747 26.7947 49.8744H43.1935L39.6426 53.2975C38.6944 54.2117 38.1618 55.4515 38.1618 56.7442C38.1618 58.037 38.6944 59.2768 39.6426 60.191L47.6863 67.9467C48.1559 68.3995 48.7134 68.7586 49.3271 69.0037C49.9407 69.2488 50.5984 69.3749 51.2626 69.3749C51.9267 69.3749 52.5844 69.2488 53.198 69.0037C53.8117 68.7586 54.3692 68.3995 54.8388 67.9467L58.3897 64.5236V80.3427C58.3895 80.9655 58.5544 81.5781 58.8687 82.1223C59.183 82.6665 59.6363 83.1242 60.1855 83.4522C60.7348 83.7801 61.3619 83.9673 62.0073 83.9961C62.6527 84.0249 63.2951 83.8942 63.8734 83.6165L79.471 76.0924C80.7303 75.486 81.7892 74.5532 82.529 73.3987C83.2688 72.2443 83.66 70.9139 83.6588 69.5569V53.6509C95.1303 46.5975 103.887 37.1371 103.887 21.4931C103.903 17.6541 103.903 13.8151 102.804 8.90972ZM83.6746 31.5934C82.4244 31.5934 81.2023 31.236 80.1628 30.5664C79.1232 29.8968 78.313 28.9451 77.8346 27.8317C77.3562 26.7182 77.231 25.493 77.4749 24.3109C77.7188 23.1289 78.3208 22.0431 79.2049 21.1909C80.0889 20.3386 81.2152 19.7583 82.4414 19.5231C83.6676 19.288 84.9386 19.4087 86.0937 19.8699C87.2487 20.3311 88.236 21.1122 88.9306 22.1143C89.6251 23.1164 89.9959 24.2945 89.9959 25.4997C89.9959 27.1159 89.3299 28.6658 88.1444 29.8086C86.959 30.9514 85.3511 31.5934 83.6746 31.5934Z" fill="#ED5050"/>
</svg>
